1600 0 1 0           
10 Cubit 12.2 17 ACIS 19.0.2 Linux 24 Sun Nov 13 13:48:07 2011 
1 9.9999999999999995e-07 1e-10 
body $1 -1 -1 $-1 $2 $-1 $3 T 0 0 0 10 10 10 #
integer_attrib-name_attrib-gen-attrib $-1 -1 $4 $-1 $0 2 1 1 1 1 1 1 1 1 1 1 1 1 1 0 1 1 1 @8 CUBIT_ID 54 #
lump $5 -1 -1 $-1 $-1 $6 $0 T 0 0 0 10 10 10 #
transform $-1 -1 1 0 0 0 1 0 0 0 1 0 0 0 1 no_rotate no_reflect no_shear #
simple-snl-attrib $-1 -1 $7 $1 $0 1 1 1 1 1 1 1 1 1 1 1 1 0 1 0 1 1 1 @17 NEW_SIMPLE_ATTRIB 1 @9 ENTITY_ID 0 3 54 -2147483648 -1 #
integer_attrib-name_attrib-gen-attrib $-1 -1 $8 $-1 $2 2 1 1 1 1 1 1 1 1 1 1 1 1 1 0 1 1 1 @8 CUBIT_ID 2 #
shell $-1 -1 -1 $-1 $-1 $-1 $9 $-1 $2 T 0 0 0 10 10 10 #
simple-snl-attrib $-1 -1 $10 $4 $0 1 1 1 1 1 1 1 1 1 1 1 1 0 1 0 1 1 1 @17 NEW_SIMPLE_ATTRIB 2 @5 GROUP @16 mat_1_rho_-0.968 0 7 1 2 159166165 0 0 0 0 #
simple-snl-attrib $-1 -1 $11 $5 $2 1 1 1 1 1 1 1 1 1 1 1 1 0 1 0 1 1 1 @17 NEW_SIMPLE_ATTRIB 1 @9 ENTITY_ID 0 3 2 -2147483648 -1 #
face $12 -1 -1 $-1 $13 $14 $6 $-1 $15 forward single T 0 0 0 10 10 0 F #
simple-snl-attrib $-1 -1 $-1 $7 $0 1 1 1 1 1 1 1 1 1 1 1 1 0 1 0 1 1 1 @17 NEW_SIMPLE_ATTRIB 2 @11 ENTITY_NAME @9 MCNP_ID_1 0 0 #
simple-snl-attrib $-1 -1 $-1 $8 $2 1 1 1 1 1 1 1 1 1 1 1 1 0 1 0 1 1 1 @17 NEW_SIMPLE_ATTRIB 7 @16 GRAPHICS_OPTIONS @14 geometry color @10 mesh color @19 geometry visibility @15 mesh visibility @11 render mode @11 transparent 0 6 5 5 1 1 0 0 #
integer_attrib-name_attrib-gen-attrib $-1 -1 $16 $-1 $9 2 1 1 1 1 1 1 1 1 1 1 1 1 1 0 1 1 1 @8 CUBIT_ID 13 #
face $17 -1 -1 $-1 $18 $19 $6 $-1 $20 forward single T 0 0 0 0 10 10 F #
loop $-1 -1 -1 $-1 $-1 $21 $9 T 0 0 0 10 10 0 periphery $15 F #
plane-surface $-1 -1 -1 $-1 0 1 0 0 0 -1 -1 0 0 forward_v I I I I #
simple-snl-attrib $-1 -1 $22 $12 $9 1 1 1 1 1 1 1 1 1 1 1 1 0 1 0 1 1 1 @17 NEW_SIMPLE_ATTRIB 1 @9 UNIQUE_ID 1 0 1 1520212774 #
integer_attrib-name_attrib-gen-attrib $-1 -1 $23 $-1 $13 2 1 1 1 1 1 1 1 1 1 1 1 1 1 0 1 1 1 @8 CUBIT_ID 14 #
face $24 -1 -1 $-1 $25 $26 $6 $-1 $27 forward single T 0 0 0 10 0 10 F #
loop $-1 -1 -1 $-1 $-1 $28 $13 T 0 0 0 0 10 10 unknown #
plane-surface $-1 -1 -1 $-1 0 0 1 -1 0 0 0 -0 1 forward_v I I I I #
coedge $-1 -1 -1 $-1 $29 $30 $31 $32 forward $14 $-1 #
simple-snl-attrib $-1 -1 $33 $16 $9 1 1 1 1 1 1 1 1 1 1 1 1 0 1 0 1 1 1 @17 NEW_SIMPLE_ATTRIB 1 @9 ENTITY_ID 0 3 13 -2147483648 -1 #
simple-snl-attrib $-1 -1 $34 $17 $13 1 1 1 1 1 1 1 1 1 1 1 1 0 1 0 1 1 1 @17 NEW_SIMPLE_ATTRIB 1 @9 UNIQUE_ID 1 0 1 2058874144 #
integer_attrib-name_attrib-gen-attrib $-1 -1 $35 $-1 $18 2 1 1 1 1 1 1 1 1 1 1 1 1 1 0 1 1 1 @8 CUBIT_ID 15 #
face $36 -1 -1 $-1 $37 $38 $6 $-1 $39 reversed single T 0 0 10 10 10 10 F #
loop $-1 -1 -1 $-1 $-1 $31 $18 T 0 0 0 10 0 10 periphery $27 F #
plane-surface $-1 -1 -1 $-1 0 0 -1 -0 -1 -0 0 0 -1 forward_v I I I I #
coedge $-1 -1 -1 $-1 $40 $41 $29 $42 reversed $19 $-1 #
coedge $-1 -1 -1 $-1 $43 $21 $28 $42 forward $14 $-1 #
coedge $-1 -1 -1 $-1 $21 $43 $44 $45 forward $14 $-1 #
coedge $-1 -1 -1 $-1 $46 $47 $21 $32 reversed $26 $-1 #
edge $48 -1 -1 $-1 $49 -10 $50 0 $31 $51 forward @7 unknown T 0 0 0 10 0 0 #
simple-snl-attrib $-1 -1 $-1 $22 $9 1 1 1 1 1 1 1 1 1 1 1 1 0 1 0 1 1 1 @17 NEW_SIMPLE_ATTRIB 3 @13 MESH_INTERVAL @4 LIMP @4 LIMP 2 1 0 5 1 0 0 1 1 #
simple-snl-attrib $-1 -1 $52 $23 $13 1 1 1 1 1 1 1 1 1 1 1 1 0 1 0 1 1 1 @17 NEW_SIMPLE_ATTRIB 1 @9 ENTITY_ID 0 3 14 -2147483648 -1 #
simple-snl-attrib $-1 -1 $53 $24 $18 1 1 1 1 1 1 1 1 1 1 1 1 0 1 0 1 1 1 @17 NEW_SIMPLE_ATTRIB 1 @9 UNIQUE_ID 1 0 1 158082652 #
integer_attrib-name_attrib-gen-attrib $-1 -1 $54 $-1 $25 2 1 1 1 1 1 1 1 1 1 1 1 1 1 0 1 1 1 @8 CUBIT_ID 16 #
face $55 -1 -1 $-1 $56 $57 $6 $-1 $58 reversed single T 10 0 0 10 10 10 F #
loop $-1 -1 -1 $-1 $-1 $59 $25 T 0 0 10 10 10 10 periphery $39 T #
plane-surface $-1 -1 -1 $-1 0 1 10 0 0 -1 -1 0 0 forward_v I I I I #
coedge $-1 -1 -1 $-1 $60 $28 $47 $61 forward $19 $-1 #
coedge $-1 -1 -1 $-1 $28 $60 $62 $63 forward $19 $-1 #
edge $64 -1 -1 $-1 $50 -0.5 $65 9.5 $28 $66 forward @7 unknown T 0 0 0 0 10 0 #
coedge $-1 -1 -1 $-1 $30 $29 $67 $68 forward $14 $-1 #
coedge $-1 -1 -1 $-1 $69 $70 $30 $45 reversed $57 $-1 #
edge $71 -1 -1 $-1 $72 -9.5 $49 0.5 $44 $73 forward @7 unknown T 10 0 0 10 10 0 #
coedge $-1 -1 -1 $-1 $74 $31 $70 $75 reversed $26 $-1 #
coedge $-1 -1 -1 $-1 $31 $74 $40 $61 reversed $26 $-1 #
integer_attrib-name_attrib-gen-attrib $-1 -1 $76 $-1 $32 2 1 1 1 1 1 1 1 1 1 1 1 1 1 0 1 1 1 @8 CUBIT_ID 285 #
vertex $77 -1 -1 $-1 $32 $78 #
vertex $79 -1 -1 $-1 $61 $80 #
straight-curve $-1 -1 -1 $-1 0 0 0 -1 0 0 I I #
simple-snl-attrib $-1 -1 $-1 $34 $13 1 1 1 1 1 1 1 1 1 1 1 1 0 1 0 1 1 1 @17 NEW_SIMPLE_ATTRIB 3 @13 MESH_INTERVAL @4 LIMP @4 LIMP 2 1 0 5 1 0 0 1 1 #
simple-snl-attrib $-1 -1 $81 $35 $18 1 1 1 1 1 1 1 1 1 1 1 1 0 1 0 1 1 1 @17 NEW_SIMPLE_ATTRIB 1 @9 ENTITY_ID 0 3 15 -2147483648 -1 #
simple-snl-attrib $-1 -1 $82 $36 $25 1 1 1 1 1 1 1 1 1 1 1 1 0 1 0 1 1 1 @17 NEW_SIMPLE_ATTRIB 1 @9 UNIQUE_ID 1 0 1 1903531451 #
integer_attrib-name_attrib-gen-attrib $-1 -1 $83 $-1 $37 2 1 1 1 1 1 1 1 1 1 1 1 1 1 0 1 1 1 @8 CUBIT_ID 17 #
face $84 -1 -1 $-1 $-1 $85 $6 $-1 $86 reversed single T 0 10 0 10 10 10 F #
loop $-1 -1 -1 $-1 $-1 $44 $37 T 10 0 0 10 10 10 unknown #
plane-surface $-1 -1 -1 $-1 10 0 1 -1 0 0 0 -0 1 forward_v I I I I #
coedge $-1 -1 -1 $-1 $87 $88 $60 $89 forward $38 $-1 #
coedge $-1 -1 -1 $-1 $41 $40 $59 $89 reversed $19 $-1 #
edge $90 -1 -1 $-1 $50 0 $91 10 $47 $92 forward @7 unknown T 0 0 0 0 0 10 #
coedge $-1 -1 -1 $-1 $93 $67 $41 $63 reversed $85 $-1 #
edge $94 -1 -1 $-1 $95 -10 $65 0 $62 $96 forward @7 unknown T 0 10 0 0 10 10 #
integer_attrib-name_attrib-gen-attrib $-1 -1 $97 $-1 $42 2 1 1 1 1 1 1 1 1 1 1 1 1 1 0 1 1 1 @8 CUBIT_ID 286 #
vertex $98 -1 -1 $-1 $42 $99 #
straight-curve $-1 -1 -1 $-1 0 0.5 0 0 1 0 I I #
coedge $-1 -1 -1 $-1 $62 $100 $43 $68 reversed $85 $-1 #
edge $101 -1 -1 $-1 $65 0 $72 10 $67 $102 forward @7 unknown T 0 10 0 10 10 0 #
coedge $-1 -1 -1 $-1 $103 $44 $100 $104 forward $57 $-1 #
coedge $-1 -1 -1 $-1 $44 $103 $46 $75 forward $57 $-1 #
integer_attrib-name_attrib-gen-attrib $-1 -1 $105 $-1 $45 2 1 1 1 1 1 1 1 1 1 1 1 1 1 0 1 1 1 @8 CUBIT_ID 288 #
vertex $106 -1 -1 $-1 $104 $107 #
straight-curve $-1 -1 -1 $-1 10 0.5 0 -0 -1 -0 I I #
coedge $-1 -1 -1 $-1 $47 $46 $87 $108 reversed $26 $-1 #
edge $109 -1 -1 $-1 $110 -10 $49 0 $46 $111 forward @7 unknown T 10 0 0 10 0 10 #
simple-snl-attrib $-1 -1 $112 $48 $32 1 1 1 1 1 1 1 1 1 1 1 1 0 1 0 1 1 1 @17 NEW_SIMPLE_ATTRIB 1 @9 UNIQUE_ID 1 0 1 1883752078 #
integer_attrib-name_attrib-gen-attrib $-1 -1 $113 $-1 $49 2 1 1 1 1 1 1 1 1 1 1 1 1 1 0 1 1 1 @8 CUBIT_ID 191 #
point $-1 -1 -1 $-1 10 0 0 #
integer_attrib-name_attrib-gen-attrib $-1 -1 $114 $-1 $50 2 1 1 1 1 1 1 1 1 1 1 1 1 1 0 1 1 1 @8 CUBIT_ID 192 #
point $-1 -1 -1 $-1 0 0 0 #
simple-snl-attrib $-1 -1 $-1 $53 $18 1 1 1 1 1 1 1 1 1 1 1 1 0 1 0 1 1 1 @17 NEW_SIMPLE_ATTRIB 3 @13 MESH_INTERVAL @4 LIMP @4 LIMP 2 1 0 5 1 0 0 1 1 #
simple-snl-attrib $-1 -1 $115 $54 $25 1 1 1 1 1 1 1 1 1 1 1 1 0 1 0 1 1 1 @17 NEW_SIMPLE_ATTRIB 1 @9 ENTITY_ID 0 3 16 -2147483648 -1 #
simple-snl-attrib $-1 -1 $116 $55 $37 1 1 1 1 1 1 1 1 1 1 1 1 0 1 0 1 1 1 @17 NEW_SIMPLE_ATTRIB 1 @9 UNIQUE_ID 1 0 1 105021556 #
integer_attrib-name_attrib-gen-attrib $-1 -1 $117 $-1 $56 2 1 1 1 1 1 1 1 1 1 1 1 1 1 0 1 1 1 @8 CUBIT_ID 18 #
loop $-1 -1 -1 $-1 $-1 $67 $56 T 0 10 0 10 10 10 unknown #
plane-surface $-1 -1 -1 $-1 0 10 -1 -0 -1 -0 0 0 -1 forward_v I I I I #
coedge $-1 -1 -1 $-1 $118 $59 $74 $108 forward $38 $-1 #
coedge $-1 -1 -1 $-1 $59 $118 $93 $119 forward $38 $-1 #
edge $120 -1 -1 $-1 $95 -9.5 $91 0.5 $60 $121 forward @7 unknown T 0 0 10 0 10 10 #
integer_attrib-name_attrib-gen-attrib $-1 -1 $122 $-1 $61 2 1 1 1 1 1 1 1 1 1 1 1 1 1 0 1 1 1 @8 CUBIT_ID 289 #
vertex $123 -1 -1 $-1 $89 $124 #
straight-curve $-1 -1 -1 $-1 0 0 0 0 -0 1 I I #
coedge $-1 -1 -1 $-1 $100 $62 $88 $119 reversed $85 $-1 #
integer_attrib-name_attrib-gen-attrib $-1 -1 $125 $-1 $63 2 1 1 1 1 1 1 1 1 1 1 1 1 1 0 1 1 1 @8 CUBIT_ID 291 #
vertex $126 -1 -1 $-1 $63 $127 #
straight-curve $-1 -1 -1 $-1 0 10 0 0 0 -1 I I #
simple-snl-attrib $-1 -1 $128 $64 $42 1 1 1 1 1 1 1 1 1 1 1 1 0 1 0 1 1 1 @17 NEW_SIMPLE_ATTRIB 1 @9 UNIQUE_ID 1 0 1 1589258097 #
integer_attrib-name_attrib-gen-attrib $-1 -1 $129 $-1 $65 2 1 1 1 1 1 1 1 1 1 1 1 1 1 0 1 1 1 @8 CUBIT_ID 193 #
point $-1 -1 -1 $-1 0 10 0 #
coedge $-1 -1 -1 $-1 $67 $93 $69 $104 reversed $85 $-1 #
integer_attrib-name_attrib-gen-attrib $-1 -1 $130 $-1 $68 2 1 1 1 1 1 1 1 1 1 1 1 1 1 0 1 1 1 @8 CUBIT_ID 287 #
straight-curve $-1 -1 -1 $-1 0 10 0 1 -0 0 I I #
coedge $-1 -1 -1 $-1 $70 $69 $118 $131 reversed $57 $-1 #
edge $132 -1 -1 $-1 $72 0 $133 10 $100 $134 forward @7 unknown T 10 10 0 10 10 10 #
simple-snl-attrib $-1 -1 $135 $71 $45 1 1 1 1 1 1 1 1 1 1 1 1 0 1 0 1 1 1 @17 NEW_SIMPLE_ATTRIB 1 @9 UNIQUE_ID 1 0 1 1408022738 #
integer_attrib-name_attrib-gen-attrib $-1 -1 $136 $-1 $72 2 1 1 1 1 1 1 1 1 1 1 1 1 1 0 1 1 1 @8 CUBIT_ID 194 #
point $-1 -1 -1 $-1 10 10 0 #
edge $137 -1 -1 $-1 $91 0 $110 10 $74 $138 forward @7 unknown T 0 0 10 10 0 10 #
integer_attrib-name_attrib-gen-attrib $-1 -1 $139 $-1 $75 2 1 1 1 1 1 1 1 1 1 1 1 1 1 0 1 1 1 @8 CUBIT_ID 292 #
vertex $140 -1 -1 $-1 $75 $141 #
straight-curve $-1 -1 -1 $-1 10 0 0 0 0 -1 I I #
simple-snl-attrib $-1 -1 $-1 $76 $32 1 1 1 1 1 1 1 1 1 1 1 1 0 1 0 1 1 1 @17 NEW_SIMPLE_ATTRIB 1 @9 ENTITY_ID 0 3 285 -2147483648 -1 #
simple-snl-attrib $-1 -1 $142 $77 $49 1 1 1 1 1 1 1 1 1 1 1 1 0 1 0 1 1 1 @17 NEW_SIMPLE_ATTRIB 1 @9 UNIQUE_ID 1 0 1 776677581 #
simple-snl-attrib $-1 -1 $143 $79 $50 1 1 1 1 1 1 1 1 1 1 1 1 0 1 0 1 1 1 @17 NEW_SIMPLE_ATTRIB 1 @9 UNIQUE_ID 1 0 1 1649601015 #
simple-snl-attrib $-1 -1 $-1 $82 $25 1 1 1 1 1 1 1 1 1 1 1 1 0 1 0 1 1 1 @17 NEW_SIMPLE_ATTRIB 3 @13 MESH_INTERVAL @4 LIMP @4 LIMP 2 1 0 5 1 0 0 1 1 #
simple-snl-attrib $-1 -1 $144 $83 $37 1 1 1 1 1 1 1 1 1 1 1 1 0 1 0 1 1 1 @17 NEW_SIMPLE_ATTRIB 1 @9 ENTITY_ID 0 3 17 -2147483648 -1 #
simple-snl-attrib $-1 -1 $145 $84 $56 1 1 1 1 1 1 1 1 1 1 1 1 0 1 0 1 1 1 @17 NEW_SIMPLE_ATTRIB 1 @9 UNIQUE_ID 1 0 1 1572455153 #
coedge $-1 -1 -1 $-1 $88 $87 $103 $131 forward $38 $-1 #
edge $146 -1 -1 $-1 $133 -10 $95 0 $93 $147 forward @7 unknown T 0 10 10 10 10 10 #
integer_attrib-name_attrib-gen-attrib $-1 -1 $148 $-1 $89 2 1 1 1 1 1 1 1 1 1 1 1 1 1 0 1 1 1 @8 CUBIT_ID 290 #
straight-curve $-1 -1 -1 $-1 0 0.5 10 -0 -1 -0 I I #
simple-snl-attrib $-1 -1 $149 $90 $61 1 1 1 1 1 1 1 1 1 1 1 1 0 1 0 1 1 1 @17 NEW_SIMPLE_ATTRIB 1 @9 UNIQUE_ID 1 0 1 57243503 #
integer_attrib-name_attrib-gen-attrib $-1 -1 $150 $-1 $91 2 1 1 1 1 1 1 1 1 1 1 1 1 1 0 1 1 1 @8 CUBIT_ID 195 #
point $-1 -1 -1 $-1 0 0 10 #
simple-snl-attrib $-1 -1 $151 $94 $63 1 1 1 1 1 1 1 1 1 1 1 1 0 1 0 1 1 1 @17 NEW_SIMPLE_ATTRIB 1 @9 UNIQUE_ID 1 0 1 1989877842 #
integer_attrib-name_attrib-gen-attrib $-1 -1 $152 $-1 $95 2 1 1 1 1 1 1 1 1 1 1 1 1 1 0 1 1 1 @8 CUBIT_ID 196 #
point $-1 -1 -1 $-1 0 10 10 #
simple-snl-attrib $-1 -1 $-1 $97 $42 1 1 1 1 1 1 1 1 1 1 1 1 0 1 0 1 1 1 @17 NEW_SIMPLE_ATTRIB 1 @9 ENTITY_ID 0 3 286 -2147483648 -1 #
simple-snl-attrib $-1 -1 $153 $98 $65 1 1 1 1 1 1 1 1 1 1 1 1 0 1 0 1 1 1 @17 NEW_SIMPLE_ATTRIB 1 @9 UNIQUE_ID 1 0 1 1570677962 #
simple-snl-attrib $-1 -1 $154 $101 $68 1 1 1 1 1 1 1 1 1 1 1 1 0 1 0 1 1 1 @17 NEW_SIMPLE_ATTRIB 1 @9 UNIQUE_ID 1 0 1 1896445939 #
edge $155 -1 -1 $-1 $110 -0.5 $133 9.5 $103 $156 forward @7 unknown T 10 0 10 10 10 10 #
integer_attrib-name_attrib-gen-attrib $-1 -1 $157 $-1 $104 2 1 1 1 1 1 1 1 1 1 1 1 1 1 0 1 1 1 @8 CUBIT_ID 296 #
vertex $158 -1 -1 $-1 $119 $159 #
straight-curve $-1 -1 -1 $-1 10 10 0 0 -0 1 I I #
simple-snl-attrib $-1 -1 $-1 $105 $45 1 1 1 1 1 1 1 1 1 1 1 1 0 1 0 1 1 1 @17 NEW_SIMPLE_ATTRIB 1 @9 ENTITY_ID 0 3 288 -2147483648 -1 #
simple-snl-attrib $-1 -1 $160 $106 $72 1 1 1 1 1 1 1 1 1 1 1 1 0 1 0 1 1 1 @17 NEW_SIMPLE_ATTRIB 1 @9 UNIQUE_ID 1 0 1 739376854 #
integer_attrib-name_attrib-gen-attrib $-1 -1 $161 $-1 $108 2 1 1 1 1 1 1 1 1 1 1 1 1 1 0 1 1 1 @8 CUBIT_ID 293 #
straight-curve $-1 -1 -1 $-1 0 0 10 1 -0 0 I I #
simple-snl-attrib $-1 -1 $162 $109 $75 1 1 1 1 1 1 1 1 1 1 1 1 0 1 0 1 1 1 @17 NEW_SIMPLE_ATTRIB 1 @9 UNIQUE_ID 1 0 1 803918674 #
integer_attrib-name_attrib-gen-attrib $-1 -1 $163 $-1 $110 2 1 1 1 1 1 1 1 1 1 1 1 1 1 0 1 1 1 @8 CUBIT_ID 197 #
point $-1 -1 -1 $-1 10 0 10 #
simple-snl-attrib $-1 -1 $-1 $113 $49 1 1 1 1 1 1 1 1 1 1 1 1 0 1 0 1 1 1 @17 NEW_SIMPLE_ATTRIB 1 @9 ENTITY_ID 0 3 191 -2147483648 -1 #
simple-snl-attrib $-1 -1 $-1 $114 $50 1 1 1 1 1 1 1 1 1 1 1 1 0 1 0 1 1 1 @17 NEW_SIMPLE_ATTRIB 1 @9 ENTITY_ID 0 3 192 -2147483648 -1 #
simple-snl-attrib $-1 -1 $-1 $116 $37 1 1 1 1 1 1 1 1 1 1 1 1 0 1 0 1 1 1 @17 NEW_SIMPLE_ATTRIB 3 @13 MESH_INTERVAL @4 LIMP @4 LIMP 2 1 0 5 1 0 0 1 1 #
simple-snl-attrib $-1 -1 $164 $117 $56 1 1 1 1 1 1 1 1 1 1 1 1 0 1 0 1 1 1 @17 NEW_SIMPLE_ATTRIB 1 @9 ENTITY_ID 0 3 18 -2147483648 -1 #
integer_attrib-name_attrib-gen-attrib $-1 -1 $165 $-1 $119 2 1 1 1 1 1 1 1 1 1 1 1 1 1 0 1 1 1 @8 CUBIT_ID 295 #
straight-curve $-1 -1 -1 $-1 0 10 10 -1 0 0 I I #
simple-snl-attrib $-1 -1 $166 $120 $89 1 1 1 1 1 1 1 1 1 1 1 1 0 1 0 1 1 1 @17 NEW_SIMPLE_ATTRIB 1 @9 UNIQUE_ID 1 0 1 404051374 #
simple-snl-attrib $-1 -1 $-1 $122 $61 1 1 1 1 1 1 1 1 1 1 1 1 0 1 0 1 1 1 @17 NEW_SIMPLE_ATTRIB 1 @9 ENTITY_ID 0 3 289 -2147483648 -1 #
simple-snl-attrib $-1 -1 $167 $123 $91 1 1 1 1 1 1 1 1 1 1 1 1 0 1 0 1 1 1 @17 NEW_SIMPLE_ATTRIB 1 @9 UNIQUE_ID 1 0 1 819187411 #
simple-snl-attrib $-1 -1 $-1 $125 $63 1 1 1 1 1 1 1 1 1 1 1 1 0 1 0 1 1 1 @17 NEW_SIMPLE_ATTRIB 1 @9 ENTITY_ID 0 3 291 -2147483648 -1 #
simple-snl-attrib $-1 -1 $168 $126 $95 1 1 1 1 1 1 1 1 1 1 1 1 0 1 0 1 1 1 @17 NEW_SIMPLE_ATTRIB 1 @9 UNIQUE_ID 1 0 1 1595459317 #
simple-snl-attrib $-1 -1 $-1 $129 $65 1 1 1 1 1 1 1 1 1 1 1 1 0 1 0 1 1 1 @17 NEW_SIMPLE_ATTRIB 1 @9 ENTITY_ID 0 3 193 -2147483648 -1 #
simple-snl-attrib $-1 -1 $-1 $130 $68 1 1 1 1 1 1 1 1 1 1 1 1 0 1 0 1 1 1 @17 NEW_SIMPLE_ATTRIB 1 @9 ENTITY_ID 0 3 287 -2147483648 -1 #
integer_attrib-name_attrib-gen-attrib $-1 -1 $169 $-1 $131 2 1 1 1 1 1 1 1 1 1 1 1 1 1 0 1 1 1 @8 CUBIT_ID 294 #
straight-curve $-1 -1 -1 $-1 10 0.5 10 0 1 0 I I #
simple-snl-attrib $-1 -1 $170 $132 $104 1 1 1 1 1 1 1 1 1 1 1 1 0 1 0 1 1 1 @17 NEW_SIMPLE_ATTRIB 1 @9 UNIQUE_ID 1 0 1 1639997386 #
integer_attrib-name_attrib-gen-attrib $-1 -1 $171 $-1 $133 2 1 1 1 1 1 1 1 1 1 1 1 1 1 0 1 1 1 @8 CUBIT_ID 198 #
point $-1 -1 -1 $-1 10 10 10 #
simple-snl-attrib $-1 -1 $-1 $136 $72 1 1 1 1 1 1 1 1 1 1 1 1 0 1 0 1 1 1 @17 NEW_SIMPLE_ATTRIB 1 @9 ENTITY_ID 0 3 194 -2147483648 -1 #
simple-snl-attrib $-1 -1 $172 $137 $108 1 1 1 1 1 1 1 1 1 1 1 1 0 1 0 1 1 1 @17 NEW_SIMPLE_ATTRIB 1 @9 UNIQUE_ID 1 0 1 95025666 #
simple-snl-attrib $-1 -1 $-1 $139 $75 1 1 1 1 1 1 1 1 1 1 1 1 0 1 0 1 1 1 @17 NEW_SIMPLE_ATTRIB 1 @9 ENTITY_ID 0 3 292 -2147483648 -1 #
simple-snl-attrib $-1 -1 $173 $140 $110 1 1 1 1 1 1 1 1 1 1 1 1 0 1 0 1 1 1 @17 NEW_SIMPLE_ATTRIB 1 @9 UNIQUE_ID 1 0 1 478111188 #
simple-snl-attrib $-1 -1 $-1 $145 $56 1 1 1 1 1 1 1 1 1 1 1 1 0 1 0 1 1 1 @17 NEW_SIMPLE_ATTRIB 3 @13 MESH_INTERVAL @4 LIMP @4 LIMP 2 1 0 5 1 0 0 1 1 #
simple-snl-attrib $-1 -1 $174 $146 $119 1 1 1 1 1 1 1 1 1 1 1 1 0 1 0 1 1 1 @17 NEW_SIMPLE_ATTRIB 1 @9 UNIQUE_ID 1 0 1 1442526249 #
simple-snl-attrib $-1 -1 $-1 $148 $89 1 1 1 1 1 1 1 1 1 1 1 1 0 1 0 1 1 1 @17 NEW_SIMPLE_ATTRIB 1 @9 ENTITY_ID 0 3 290 -2147483648 -1 #
simple-snl-attrib $-1 -1 $-1 $150 $91 1 1 1 1 1 1 1 1 1 1 1 1 0 1 0 1 1 1 @17 NEW_SIMPLE_ATTRIB 1 @9 ENTITY_ID 0 3 195 -2147483648 -1 #
simple-snl-attrib $-1 -1 $-1 $152 $95 1 1 1 1 1 1 1 1 1 1 1 1 0 1 0 1 1 1 @17 NEW_SIMPLE_ATTRIB 1 @9 ENTITY_ID 0 3 196 -2147483648 -1 #
simple-snl-attrib $-1 -1 $175 $155 $131 1 1 1 1 1 1 1 1 1 1 1 1 0 1 0 1 1 1 @17 NEW_SIMPLE_ATTRIB 1 @9 UNIQUE_ID 1 0 1 62648491 #
simple-snl-attrib $-1 -1 $-1 $157 $104 1 1 1 1 1 1 1 1 1 1 1 1 0 1 0 1 1 1 @17 NEW_SIMPLE_ATTRIB 1 @9 ENTITY_ID 0 3 296 -2147483648 -1 #
simple-snl-attrib $-1 -1 $176 $158 $133 1 1 1 1 1 1 1 1 1 1 1 1 0 1 0 1 1 1 @17 NEW_SIMPLE_ATTRIB 1 @9 UNIQUE_ID 1 0 1 1820035427 #
simple-snl-attrib $-1 -1 $-1 $161 $108 1 1 1 1 1 1 1 1 1 1 1 1 0 1 0 1 1 1 @17 NEW_SIMPLE_ATTRIB 1 @9 ENTITY_ID 0 3 293 -2147483648 -1 #
simple-snl-attrib $-1 -1 $-1 $163 $110 1 1 1 1 1 1 1 1 1 1 1 1 0 1 0 1 1 1 @17 NEW_SIMPLE_ATTRIB 1 @9 ENTITY_ID 0 3 197 -2147483648 -1 #
simple-snl-attrib $-1 -1 $-1 $165 $119 1 1 1 1 1 1 1 1 1 1 1 1 0 1 0 1 1 1 @17 NEW_SIMPLE_ATTRIB 1 @9 ENTITY_ID 0 3 295 -2147483648 -1 #
simple-snl-attrib $-1 -1 $-1 $169 $131 1 1 1 1 1 1 1 1 1 1 1 1 0 1 0 1 1 1 @17 NEW_SIMPLE_ATTRIB 1 @9 ENTITY_ID 0 3 294 -2147483648 -1 #
simple-snl-attrib $-1 -1 $-1 $171 $133 1 1 1 1 1 1 1 1 1 1 1 1 0 1 0 1 1 1 @17 NEW_SIMPLE_ATTRIB 1 @9 ENTITY_ID 0 3 198 -2147483648 -1 #
End-of-ACIS-data 