1600 0 2 0           
10 Cubit 13.0 14 ACIS 21.0.1 NT 24 Fri Oct 14 16:05:58 2011 
1 9.9999999999999995e-007 1e-010 
body $2 -1 -1 $-1 $3 $-1 $4 T -5 -5 -5 5 5 5 #
body $5 -1 -1 $-1 $6 $-1 $7 T 5 -5 -5 15 5 5 #
integer_attrib-name_attrib-gen-attrib $-1 -1 $8 $-1 $0 2 1 1 1 1 1 1 1 1 1 1 1 1 1 0 1 1 1 @8 CUBIT_ID 1 #
lump $9 -1 -1 $-1 $-1 $10 $0 T -5 -5 -5 5 5 5 #
transform $-1 -1 1 0 0 0 1 0 0 0 1 0 0 0 1 no_rotate no_reflect no_shear #
integer_attrib-name_attrib-gen-attrib $-1 -1 $11 $-1 $1 2 1 1 1 1 1 1 1 1 1 1 1 1 1 0 1 1 1 @8 CUBIT_ID 2 #
lump $12 -1 -1 $-1 $-1 $13 $1 T 5 -5 -5 15 5 5 #
transform $-1 -1 1 0 0 0 1 0 0 0 1 0 0 0 1 no_rotate no_reflect no_shear #
simple-snl-attrib $-1 -1 $-1 $2 $0 1 1 1 1 1 1 1 1 1 1 1 1 0 1 0 1 1 1 @17 NEW_SIMPLE_ATTRIB 1 @9 ENTITY_ID 0 3 1 -2147483648 -1 #
integer_attrib-name_attrib-gen-attrib $-1 -1 $14 $-1 $3 2 1 1 1 1 1 1 1 1 1 1 1 1 1 0 1 1 1 @8 CUBIT_ID 1 #
shell $-1 -1 -1 $-1 $-1 $-1 $15 $-1 $3 T -5 -5 -5 5 5 5 #
simple-snl-attrib $-1 -1 $-1 $5 $1 1 1 1 1 1 1 1 1 1 1 1 1 0 1 0 1 1 1 @17 NEW_SIMPLE_ATTRIB 1 @9 ENTITY_ID 0 3 2 -2147483648 -1 #
integer_attrib-name_attrib-gen-attrib $-1 -1 $16 $-1 $6 2 1 1 1 1 1 1 1 1 1 1 1 1 1 0 1 1 1 @8 CUBIT_ID 2 #
shell $-1 -1 -1 $-1 $-1 $-1 $17 $-1 $6 T 5 -5 -5 15 5 5 #
simple-snl-attrib $-1 -1 $18 $9 $3 1 1 1 1 1 1 1 1 1 1 1 1 0 1 0 1 1 1 @17 NEW_SIMPLE_ATTRIB 1 @9 ENTITY_ID 0 3 1 -2147483648 -1 #
face $19 -1 -1 $-1 $20 $21 $10 $-1 $22 forward single T -5 -5 5 5 5 5 F #
simple-snl-attrib $-1 -1 $23 $12 $6 1 1 1 1 1 1 1 1 1 1 1 1 0 1 0 1 1 1 @17 NEW_SIMPLE_ATTRIB 1 @9 ENTITY_ID 0 3 2 -2147483648 -1 #
face $24 -1 -1 $-1 $25 $26 $13 $-1 $27 forward single T 5 -5 5 15 5 5 F #
simple-snl-attrib $-1 -1 $28 $14 $3 1 1 1 1 1 1 1 1 1 1 1 1 0 1 0 1 1 1 @17 NEW_SIMPLE_ATTRIB 2 @5 GROUP @13 mat_1_rho_0.5 0 7 1 2 18788 0 0 0 0 #
integer_attrib-name_attrib-gen-attrib $-1 -1 $29 $-1 $15 2 1 1 1 1 1 1 1 1 1 1 1 1 1 0 1 1 1 @8 CUBIT_ID 1 #
face $30 -1 -1 $-1 $31 $32 $10 $-1 $33 reversed single T -5 -5 -5 5 5 -5 F #
loop $-1 -1 -1 $-1 $-1 $34 $15 T -5 -5 5 5 5 5 unknown #
plane-surface $-1 -1 -1 $-1 0 0 5 0 0 1 1 0 0 forward_v I I I I #
simple-snl-attrib $-1 -1 $35 $16 $6 1 1 1 1 1 1 1 1 1 1 1 1 0 1 0 1 1 1 @17 NEW_SIMPLE_ATTRIB 2 @5 GROUP @13 mat_2_rho_0.5 0 7 1 3 27049 0 0 0 0 #
integer_attrib-name_attrib-gen-attrib $-1 -1 $36 $-1 $17 2 1 1 1 1 1 1 1 1 1 1 1 1 1 0 1 1 1 @8 CUBIT_ID 7 #
face $37 -1 -1 $-1 $38 $39 $13 $-1 $40 reversed single T 5 -5 -5 15 5 -5 F #
loop $-1 -1 -1 $-1 $-1 $41 $17 T 5 -5 5 15 5 5 unknown #
plane-surface $-1 -1 -1 $-1 10 0 5 0 0 1 1 0 0 forward_v I I I I #
simple-snl-attrib $-1 -1 $-1 $18 $3 1 1 1 1 1 1 1 1 1 1 1 1 0 1 0 1 1 1 @17 NEW_SIMPLE_ATTRIB 7 @16 GRAPHICS_OPTIONS @14 geometry color @10 mesh color @19 geometry visibility @15 mesh visibility @11 render mode @11 transparent 0 6 4 4 1 1 0 0 #
simple-snl-attrib $-1 -1 $42 $19 $15 1 1 1 1 1 1 1 1 1 1 1 1 0 1 0 1 1 1 @17 NEW_SIMPLE_ATTRIB 1 @9 ENTITY_ID 0 3 1 -2147483648 -1 #
integer_attrib-name_attrib-gen-attrib $-1 -1 $43 $-1 $20 2 1 1 1 1 1 1 1 1 1 1 1 1 1 0 1 1 1 @8 CUBIT_ID 2 #
face $44 -1 -1 $-1 $45 $46 $10 $-1 $47 reversed single T -5 -5 -5 5 -5 5 F #
loop $-1 -1 -1 $-1 $-1 $48 $20 T -5 -5 -5 5 5 -5 unknown #
plane-surface $-1 -1 -1 $-1 0 0 -5 0 0 1 1 0 0 forward_v I I I I #
coedge $-1 -1 -1 $-1 $49 $50 $51 $52 forward $21 $-1 #
simple-snl-attrib $-1 -1 $-1 $23 $6 1 1 1 1 1 1 1 1 1 1 1 1 0 1 0 1 1 1 @17 NEW_SIMPLE_ATTRIB 7 @16 GRAPHICS_OPTIONS @14 geometry color @10 mesh color @19 geometry visibility @15 mesh visibility @11 render mode @11 transparent 0 6 5 5 1 1 0 0 #
simple-snl-attrib $-1 -1 $53 $24 $17 1 1 1 1 1 1 1 1 1 1 1 1 0 1 0 1 1 1 @17 NEW_SIMPLE_ATTRIB 1 @9 ENTITY_ID 0 3 7 -2147483648 -1 #
integer_attrib-name_attrib-gen-attrib $-1 -1 $54 $-1 $25 2 1 1 1 1 1 1 1 1 1 1 1 1 1 0 1 1 1 @8 CUBIT_ID 8 #
face $55 -1 -1 $-1 $56 $57 $13 $-1 $58 reversed single T 5 -5 -5 15 -5 5 F #
loop $-1 -1 -1 $-1 $-1 $59 $25 T 5 -5 -5 15 5 -5 unknown #
plane-surface $-1 -1 -1 $-1 10 0 -5 0 0 1 1 0 0 forward_v I I I I #
coedge $-1 -1 -1 $-1 $60 $61 $62 $63 forward $26 $-1 #
simple-snl-attrib $-1 -1 $-1 $29 $15 1 1 1 1 1 1 1 1 1 1 1 1 0 1 0 1 1 1 @17 NEW_SIMPLE_ATTRIB 3 @13 MESH_INTERVAL @4 LIMP @4 LIMP 2 1 0 5 1 0 0 1 1 #
simple-snl-attrib $-1 -1 $64 $30 $20 1 1 1 1 1 1 1 1 1 1 1 1 0 1 0 1 1 1 @17 NEW_SIMPLE_ATTRIB 1 @9 ENTITY_ID 0 3 2 -2147483648 -1 #
integer_attrib-name_attrib-gen-attrib $-1 -1 $65 $-1 $31 2 1 1 1 1 1 1 1 1 1 1 1 1 1 0 1 1 1 @8 CUBIT_ID 3 #
face $66 -1 -1 $-1 $67 $68 $10 $-1 $69 reversed single T -5 -5 -5 -5 5 5 F #
loop $-1 -1 -1 $-1 $-1 $70 $31 T -5 -5 -5 5 -5 5 unknown #
plane-surface $-1 -1 -1 $-1 0 -5 0 0 1 -0 -0 0 1 forward_v I I I I #
coedge $-1 -1 -1 $-1 $71 $72 $73 $74 forward $32 $-1 #
coedge $-1 -1 -1 $-1 $75 $34 $76 $77 forward $21 $-1 #
coedge $-1 -1 -1 $-1 $34 $75 $78 $79 forward $21 $-1 #
coedge $-1 -1 -1 $-1 $80 $81 $34 $52 reversed $82 $-1 #
edge $83 -1 -1 $-1 $84 -5 $85 5 $51 $86 forward @7 unknown T 5 -5 5 5 5 5 #
simple-snl-attrib $-1 -1 $-1 $36 $17 1 1 1 1 1 1 1 1 1 1 1 1 0 1 0 1 1 1 @17 NEW_SIMPLE_ATTRIB 3 @13 MESH_INTERVAL @4 LIMP @4 LIMP 2 1 0 5 1 0 0 1 1 #
simple-snl-attrib $-1 -1 $87 $37 $25 1 1 1 1 1 1 1 1 1 1 1 1 0 1 0 1 1 1 @17 NEW_SIMPLE_ATTRIB 1 @9 ENTITY_ID 0 3 8 -2147483648 -1 #
integer_attrib-name_attrib-gen-attrib $-1 -1 $88 $-1 $38 2 1 1 1 1 1 1 1 1 1 1 1 1 1 0 1 1 1 @8 CUBIT_ID 9 #
face $89 -1 -1 $-1 $90 $91 $13 $-1 $92 reversed single T 5 -5 -5 5 5 5 F #
loop $-1 -1 -1 $-1 $-1 $93 $38 T 5 -5 -5 15 -5 5 unknown #
plane-surface $-1 -1 -1 $-1 10 -5 0 0 1 0 0 0 1 forward_v I I I I #
coedge $-1 -1 -1 $-1 $94 $95 $96 $97 forward $39 $-1 #
coedge $-1 -1 -1 $-1 $98 $41 $99 $100 forward $26 $-1 #
coedge $-1 -1 -1 $-1 $41 $98 $101 $102 forward $26 $-1 #
coedge $-1 -1 -1 $-1 $103 $104 $41 $63 reversed $105 $-1 #
edge $106 -1 -1 $-1 $107 -5 $108 5 $62 $109 forward @7 unknown T 15 -5 5 15 5 5 #
simple-snl-attrib $-1 -1 $-1 $43 $20 1 1 1 1 1 1 1 1 1 1 1 1 0 1 0 1 1 1 @17 NEW_SIMPLE_ATTRIB 3 @13 MESH_INTERVAL @4 LIMP @4 LIMP 2 1 0 5 1 0 0 1 1 #
simple-snl-attrib $-1 -1 $110 $44 $31 1 1 1 1 1 1 1 1 1 1 1 1 0 1 0 1 1 1 @17 NEW_SIMPLE_ATTRIB 1 @9 ENTITY_ID 0 3 3 -2147483648 -1 #
integer_attrib-name_attrib-gen-attrib $-1 -1 $111 $-1 $45 2 1 1 1 1 1 1 1 1 1 1 1 1 1 0 1 1 1 @8 CUBIT_ID 4 #
face $112 -1 -1 $-1 $113 $114 $10 $-1 $115 reversed single T -5 5 -5 5 5 5 F #
loop $-1 -1 -1 $-1 $-1 $116 $45 T -5 -5 -5 -5 5 5 unknown #
plane-surface $-1 -1 -1 $-1 -5 0 0 1 0 0 0 0 -1 forward_v I I I I #
coedge $-1 -1 -1 $-1 $117 $78 $118 $119 forward $46 $-1 #
coedge $-1 -1 -1 $-1 $120 $48 $117 $121 forward $32 $-1 #
coedge $-1 -1 -1 $-1 $48 $120 $122 $123 forward $32 $-1 #
coedge $-1 -1 -1 $-1 $81 $80 $48 $74 reversed $82 $-1 #
edge $124 -1 -1 $-1 $125 -5 $126 5 $73 $127 forward @7 unknown T 5 -5 -5 5 5 -5 #
coedge $-1 -1 -1 $-1 $50 $49 $128 $129 forward $21 $-1 #
coedge $-1 -1 -1 $-1 $130 $131 $49 $77 reversed $114 $-1 #
edge $132 -1 -1 $-1 $85 -5 $133 5 $76 $134 forward @7 unknown T -5 5 5 5 5 5 #
coedge $-1 -1 -1 $-1 $70 $135 $50 $79 reversed $46 $-1 #
edge $136 -1 -1 $-1 $137 -5 $84 5 $78 $138 forward @7 unknown T -5 -5 5 5 -5 5 #
coedge $-1 -1 -1 $-1 $73 $51 $135 $139 forward $82 $-1 #
coedge $-1 -1 -1 $-1 $51 $73 $130 $140 reversed $82 $-1 #
loop $-1 -1 -1 $-1 $-1 $80 $113 T 5 -5 -5 5 5 5 unknown #
integer_attrib-name_attrib-gen-attrib $-1 -1 $141 $-1 $52 2 1 1 1 1 1 1 1 1 1 1 1 1 1 0 1 1 1 @8 CUBIT_ID 1 #
vertex $142 -1 -1 $-1 $52 $143 #
vertex $144 -1 -1 $-1 $52 $145 #
straight-curve $-1 -1 -1 $-1 5 0 5 0 1 0 I I #
simple-snl-attrib $-1 -1 $-1 $54 $25 1 1 1 1 1 1 1 1 1 1 1 1 0 1 0 1 1 1 @17 NEW_SIMPLE_ATTRIB 3 @13 MESH_INTERVAL @4 LIMP @4 LIMP 2 1 0 5 1 0 0 1 1 #
simple-snl-attrib $-1 -1 $146 $55 $38 1 1 1 1 1 1 1 1 1 1 1 1 0 1 0 1 1 1 @17 NEW_SIMPLE_ATTRIB 1 @9 ENTITY_ID 0 3 9 -2147483648 -1 #
integer_attrib-name_attrib-gen-attrib $-1 -1 $147 $-1 $56 2 1 1 1 1 1 1 1 1 1 1 1 1 1 0 1 1 1 @8 CUBIT_ID 6 #
face $148 -1 -1 $-1 $149 $150 $13 $-1 $151 reversed single T 5 5 -5 15 5 5 F #
loop $-1 -1 -1 $-1 $-1 $152 $56 T 5 -5 -5 5 5 5 unknown #
plane-surface $-1 -1 -1 $-1 5 0 0 1 0 0 0 0 -1 forward_v I I I I #
coedge $-1 -1 -1 $-1 $153 $101 $154 $155 forward $57 $-1 #
coedge $-1 -1 -1 $-1 $156 $59 $153 $157 forward $39 $-1 #
coedge $-1 -1 -1 $-1 $59 $156 $158 $159 forward $39 $-1 #
coedge $-1 -1 -1 $-1 $104 $103 $59 $97 reversed $105 $-1 #
edge $160 -1 -1 $-1 $161 -5 $162 5 $96 $163 forward @7 unknown T 15 -5 -5 15 5 -5 #
coedge $-1 -1 -1 $-1 $61 $60 $164 $165 forward $26 $-1 #
coedge $-1 -1 -1 $-1 $166 $167 $60 $100 reversed $150 $-1 #
edge $168 -1 -1 $-1 $108 -5 $169 5 $99 $170 forward @7 unknown T 5 5 5 15 5 5 #
coedge $-1 -1 -1 $-1 $93 $171 $61 $102 reversed $57 $-1 #
edge $172 -1 -1 $-1 $173 -5 $107 5 $101 $174 forward @7 unknown T 5 -5 5 15 -5 5 #
coedge $-1 -1 -1 $-1 $96 $62 $171 $175 forward $105 $-1 #
coedge $-1 -1 -1 $-1 $62 $96 $166 $176 reversed $105 $-1 #
loop $-1 -1 -1 $-1 $-1 $103 $149 T 15 -5 -5 15 5 5 unknown #
integer_attrib-name_attrib-gen-attrib $-1 -1 $177 $-1 $63 2 1 1 1 1 1 1 1 1 1 1 1 1 1 0 1 1 1 @8 CUBIT_ID 13 #
vertex $178 -1 -1 $-1 $63 $179 #
vertex $180 -1 -1 $-1 $63 $181 #
straight-curve $-1 -1 -1 $-1 15 0 5 0 1 0 I I #
simple-snl-attrib $-1 -1 $-1 $65 $31 1 1 1 1 1 1 1 1 1 1 1 1 0 1 0 1 1 1 @17 NEW_SIMPLE_ATTRIB 3 @13 MESH_INTERVAL @4 LIMP @4 LIMP 2 1 0 5 1 0 0 1 1 #
simple-snl-attrib $-1 -1 $182 $66 $45 1 1 1 1 1 1 1 1 1 1 1 1 0 1 0 1 1 1 @17 NEW_SIMPLE_ATTRIB 1 @9 ENTITY_ID 0 3 4 -2147483648 -1 #
integer_attrib-name_attrib-gen-attrib $-1 -1 $183 $-1 $67 2 1 1 1 1 1 1 1 1 1 1 1 1 1 0 1 1 1 @8 CUBIT_ID 5 #
face $184 -1 -1 $-1 $-1 $82 $10 $-1 $185 reversed single T 5 -5 -5 5 5 5 F #
loop $-1 -1 -1 $-1 $-1 $130 $67 T -5 5 -5 5 5 5 unknown #
plane-surface $-1 -1 -1 $-1 0 5 0 0 -1 0 0 0 -1 forward_v I I I I #
coedge $-1 -1 -1 $-1 $186 $128 $131 $187 forward $68 $-1 #
coedge $-1 -1 -1 $-1 $135 $70 $71 $121 reversed $46 $-1 #
coedge $-1 -1 -1 $-1 $128 $186 $70 $119 reversed $68 $-1 #
edge $188 -1 -1 $-1 $137 -5 $189 5 $118 $190 forward @7 unknown T -5 -5 -5 -5 -5 5 #
coedge $-1 -1 -1 $-1 $72 $71 $186 $191 forward $32 $-1 #
edge $192 -1 -1 $-1 $126 -5 $189 5 $117 $193 forward @7 unknown T -5 -5 -5 5 -5 -5 #
coedge $-1 -1 -1 $-1 $131 $130 $72 $123 reversed $114 $-1 #
edge $194 -1 -1 $-1 $195 -5 $125 5 $122 $196 forward @7 unknown T -5 5 -5 5 5 -5 #
integer_attrib-name_attrib-gen-attrib $-1 -1 $197 $-1 $74 2 1 1 1 1 1 1 1 1 1 1 1 1 1 0 1 1 1 @8 CUBIT_ID 5 #
vertex $198 -1 -1 $-1 $74 $199 #
vertex $200 -1 -1 $-1 $139 $201 #
straight-curve $-1 -1 -1 $-1 5 0 -5 0 -1 0 I I #
coedge $-1 -1 -1 $-1 $116 $118 $75 $129 reversed $68 $-1 #
edge $202 -1 -1 $-1 $133 -5 $137 5 $128 $203 forward @7 unknown T -5 -5 5 -5 5 5 #
coedge $-1 -1 -1 $-1 $122 $76 $81 $140 forward $114 $-1 #
coedge $-1 -1 -1 $-1 $76 $122 $116 $187 reversed $114 $-1 #
integer_attrib-name_attrib-gen-attrib $-1 -1 $204 $-1 $77 2 1 1 1 1 1 1 1 1 1 1 1 1 1 0 1 1 1 @8 CUBIT_ID 2 #
vertex $205 -1 -1 $-1 $77 $206 #
straight-curve $-1 -1 -1 $-1 0 5 5 -1 0 0 I I #
coedge $-1 -1 -1 $-1 $78 $117 $80 $139 reversed $46 $-1 #
integer_attrib-name_attrib-gen-attrib $-1 -1 $207 $-1 $79 2 1 1 1 1 1 1 1 1 1 1 1 1 1 0 1 1 1 @8 CUBIT_ID 4 #
vertex $208 -1 -1 $-1 $129 $209 #
straight-curve $-1 -1 -1 $-1 0 -5 5 1 0 0 I I #
edge $210 -1 -1 $-1 $84 -5 $126 5 $80 $211 forward @7 unknown T 5 -5 -5 5 -5 5 #
edge $212 -1 -1 $-1 $85 -5 $125 5 $81 $213 forward @7 unknown T 5 5 -5 5 5 5 #
simple-snl-attrib $-1 -1 $214 $83 $52 1 1 1 1 1 1 1 1 1 1 1 1 0 1 0 1 1 1 @17 NEW_SIMPLE_ATTRIB 1 @9 UNIQUE_ID 1 0 1 1497100419 #
integer_attrib-name_attrib-gen-attrib $-1 -1 $215 $-1 $84 2 1 1 1 1 1 1 1 1 1 1 1 1 1 0 1 1 1 @8 CUBIT_ID 1 #
point $-1 -1 -1 $-1 5 -5 5 #
integer_attrib-name_attrib-gen-attrib $-1 -1 $216 $-1 $85 2 1 1 1 1 1 1 1 1 1 1 1 1 1 0 1 1 1 @8 CUBIT_ID 2 #
point $-1 -1 -1 $-1 5 5 5 #
simple-snl-attrib $-1 -1 $-1 $88 $38 1 1 1 1 1 1 1 1 1 1 1 1 0 1 0 1 1 1 @17 NEW_SIMPLE_ATTRIB 3 @13 MESH_INTERVAL @4 LIMP @4 LIMP 2 1 0 5 1 0 0 1 1 #
simple-snl-attrib $-1 -1 $217 $89 $56 1 1 1 1 1 1 1 1 1 1 1 1 0 1 0 1 1 1 @17 NEW_SIMPLE_ATTRIB 1 @9 UNIQUE_ID 1 0 1 1927891207 #
integer_attrib-name_attrib-gen-attrib $-1 -1 $218 $-1 $90 2 1 1 1 1 1 1 1 1 1 1 1 1 1 0 1 1 1 @8 CUBIT_ID 11 #
face $219 -1 -1 $-1 $-1 $105 $13 $-1 $220 reversed single T 15 -5 -5 15 5 5 F #
loop $-1 -1 -1 $-1 $-1 $166 $90 T 5 5 -5 15 5 5 unknown #
plane-surface $-1 -1 -1 $-1 10 5 0 0 -1 0 0 0 -1 forward_v I I I I #
coedge $-1 -1 -1 $-1 $221 $164 $167 $222 forward $91 $-1 #
coedge $-1 -1 -1 $-1 $171 $93 $94 $157 reversed $57 $-1 #
coedge $-1 -1 -1 $-1 $164 $221 $93 $155 reversed $91 $-1 #
edge $223 -1 -1 $-1 $173 -5 $224 5 $154 $225 forward @7 unknown T 5 -5 -5 5 -5 5 #
coedge $-1 -1 -1 $-1 $95 $94 $221 $226 forward $39 $-1 #
edge $227 -1 -1 $-1 $162 -5 $224 5 $153 $228 forward @7 unknown T 5 -5 -5 15 -5 -5 #
coedge $-1 -1 -1 $-1 $167 $166 $95 $159 reversed $150 $-1 #
edge $229 -1 -1 $-1 $230 -5 $161 5 $158 $231 forward @7 unknown T 5 5 -5 15 5 -5 #
integer_attrib-name_attrib-gen-attrib $-1 -1 $232 $-1 $97 2 1 1 1 1 1 1 1 1 1 1 1 1 1 0 1 1 1 @8 CUBIT_ID 17 #
vertex $233 -1 -1 $-1 $97 $234 #
vertex $235 -1 -1 $-1 $175 $236 #
straight-curve $-1 -1 -1 $-1 15 0 -5 0 -1 0 I I #
coedge $-1 -1 -1 $-1 $152 $154 $98 $165 reversed $91 $-1 #
edge $237 -1 -1 $-1 $169 -5 $173 5 $164 $238 forward @7 unknown T 5 -5 5 5 5 5 #
coedge $-1 -1 -1 $-1 $158 $99 $104 $176 forward $150 $-1 #
coedge $-1 -1 -1 $-1 $99 $158 $152 $222 reversed $150 $-1 #
integer_attrib-name_attrib-gen-attrib $-1 -1 $239 $-1 $100 2 1 1 1 1 1 1 1 1 1 1 1 1 1 0 1 1 1 @8 CUBIT_ID 14 #
vertex $240 -1 -1 $-1 $100 $241 #
straight-curve $-1 -1 -1 $-1 10 5 5 -1 0 0 I I #
coedge $-1 -1 -1 $-1 $101 $153 $103 $175 reversed $57 $-1 #
integer_attrib-name_attrib-gen-attrib $-1 -1 $242 $-1 $102 2 1 1 1 1 1 1 1 1 1 1 1 1 1 0 1 1 1 @8 CUBIT_ID 16 #
vertex $243 -1 -1 $-1 $165 $244 #
straight-curve $-1 -1 -1 $-1 10 -5 5 1 0 0 I I #
edge $245 -1 -1 $-1 $107 -5 $162 5 $103 $246 forward @7 unknown T 15 -5 -5 15 -5 5 #
edge $247 -1 -1 $-1 $108 -5 $161 5 $104 $248 forward @7 unknown T 15 5 -5 15 5 5 #
simple-snl-attrib $-1 -1 $-1 $106 $63 1 1 1 1 1 1 1 1 1 1 1 1 0 1 0 1 1 1 @17 NEW_SIMPLE_ATTRIB 1 @9 ENTITY_ID 0 3 13 -2147483648 -1 #
integer_attrib-name_attrib-gen-attrib $-1 -1 $249 $-1 $107 2 1 1 1 1 1 1 1 1 1 1 1 1 1 0 1 1 1 @8 CUBIT_ID 9 #
point $-1 -1 -1 $-1 15 -5 5 #
integer_attrib-name_attrib-gen-attrib $-1 -1 $250 $-1 $108 2 1 1 1 1 1 1 1 1 1 1 1 1 1 0 1 1 1 @8 CUBIT_ID 10 #
point $-1 -1 -1 $-1 15 5 5 #
simple-snl-attrib $-1 -1 $-1 $111 $45 1 1 1 1 1 1 1 1 1 1 1 1 0 1 0 1 1 1 @17 NEW_SIMPLE_ATTRIB 3 @13 MESH_INTERVAL @4 LIMP @4 LIMP 2 1 0 5 1 0 0 1 1 #
simple-snl-attrib $-1 -1 $251 $112 $67 1 1 1 1 1 1 1 1 1 1 1 1 0 1 0 1 1 1 @17 NEW_SIMPLE_ATTRIB 1 @9 ENTITY_ID 0 3 5 -2147483648 -1 #
integer_attrib-name_attrib-gen-attrib $-1 -1 $252 $-1 $113 2 1 1 1 1 1 1 1 1 1 1 1 1 1 0 1 1 1 @8 CUBIT_ID 6 #
plane-surface $-1 -1 -1 $-1 5 0 0 -1 0 0 0 -0 1 forward_v I I I I #
coedge $-1 -1 -1 $-1 $118 $116 $120 $191 reversed $68 $-1 #
edge $253 -1 -1 $-1 $133 -5 $195 5 $131 $254 forward @7 unknown T -5 5 -5 -5 5 5 #
integer_attrib-name_attrib-gen-attrib $-1 -1 $255 $-1 $119 2 1 1 1 1 1 1 1 1 1 1 1 1 1 0 1 1 1 @8 CUBIT_ID 9 #
vertex $256 -1 -1 $-1 $191 $257 #
straight-curve $-1 -1 -1 $-1 -5 -5 0 0 0 -1 I I #
edge $258 -1 -1 $-1 $189 -5 $195 5 $186 $259 forward @7 unknown T -5 -5 -5 -5 5 -5 #
integer_attrib-name_attrib-gen-attrib $-1 -1 $260 $-1 $121 2 1 1 1 1 1 1 1 1 1 1 1 1 1 0 1 1 1 @8 CUBIT_ID 6 #
straight-curve $-1 -1 -1 $-1 0 -5 -5 -1 0 0 I I #
integer_attrib-name_attrib-gen-attrib $-1 -1 $261 $-1 $123 2 1 1 1 1 1 1 1 1 1 1 1 1 1 0 1 1 1 @8 CUBIT_ID 8 #
vertex $262 -1 -1 $-1 $123 $263 #
straight-curve $-1 -1 -1 $-1 0 5 -5 1 0 0 I I #
simple-snl-attrib $-1 -1 $264 $124 $74 1 1 1 1 1 1 1 1 1 1 1 1 0 1 0 1 1 1 @17 NEW_SIMPLE_ATTRIB 1 @9 UNIQUE_ID 1 0 1 212987153 #
integer_attrib-name_attrib-gen-attrib $-1 -1 $265 $-1 $125 2 1 1 1 1 1 1 1 1 1 1 1 1 1 0 1 1 1 @8 CUBIT_ID 5 #
point $-1 -1 -1 $-1 5 5 -5 #
integer_attrib-name_attrib-gen-attrib $-1 -1 $266 $-1 $126 2 1 1 1 1 1 1 1 1 1 1 1 1 1 0 1 1 1 @8 CUBIT_ID 6 #
point $-1 -1 -1 $-1 5 -5 -5 #
integer_attrib-name_attrib-gen-attrib $-1 -1 $267 $-1 $129 2 1 1 1 1 1 1 1 1 1 1 1 1 1 0 1 1 1 @8 CUBIT_ID 3 #
straight-curve $-1 -1 -1 $-1 -5 0 5 0 -1 0 I I #
simple-snl-attrib $-1 -1 $-1 $132 $77 1 1 1 1 1 1 1 1 1 1 1 1 0 1 0 1 1 1 @17 NEW_SIMPLE_ATTRIB 1 @9 ENTITY_ID 0 3 2 -2147483648 -1 #
integer_attrib-name_attrib-gen-attrib $-1 -1 $268 $-1 $133 2 1 1 1 1 1 1 1 1 1 1 1 1 1 0 1 1 1 @8 CUBIT_ID 3 #
point $-1 -1 -1 $-1 -5 5 5 #
simple-snl-attrib $-1 -1 $-1 $136 $79 1 1 1 1 1 1 1 1 1 1 1 1 0 1 0 1 1 1 @17 NEW_SIMPLE_ATTRIB 1 @9 ENTITY_ID 0 3 4 -2147483648 -1 #
integer_attrib-name_attrib-gen-attrib $-1 -1 $269 $-1 $137 2 1 1 1 1 1 1 1 1 1 1 1 1 1 0 1 1 1 @8 CUBIT_ID 4 #
point $-1 -1 -1 $-1 -5 -5 5 #
integer_attrib-name_attrib-gen-attrib $-1 -1 $270 $-1 $139 2 1 1 1 1 1 1 1 1 1 1 1 1 1 0 1 1 1 @8 CUBIT_ID 10 #
straight-curve $-1 -1 -1 $-1 5 -5 0 0 0 -1 I I #
integer_attrib-name_attrib-gen-attrib $-1 -1 $271 $-1 $140 2 1 1 1 1 1 1 1 1 1 1 1 1 1 0 1 1 1 @8 CUBIT_ID 12 #
straight-curve $-1 -1 -1 $-1 5 5 0 0 0 -1 I I #
simple-snl-attrib $-1 -1 $272 $141 $52 1 1 1 1 1 1 1 1 1 1 1 1 0 1 0 1 1 1 @17 NEW_SIMPLE_ATTRIB 1 @9 ENTITY_ID 0 3 1 717244766 0 #
simple-snl-attrib $-1 -1 $273 $142 $84 1 1 1 1 1 1 1 1 1 1 1 1 0 1 0 1 1 1 @17 NEW_SIMPLE_ATTRIB 1 @9 UNIQUE_ID 1 0 1 717244766 #
simple-snl-attrib $-1 -1 $274 $144 $85 1 1 1 1 1 1 1 1 1 1 1 1 0 1 0 1 1 1 @17 NEW_SIMPLE_ATTRIB 1 @9 UNIQUE_ID 1 0 1 1204796404 #
simple-snl-attrib $-1 -1 $275 $147 $56 1 1 1 1 1 1 1 1 1 1 1 1 0 1 0 1 1 1 @17 NEW_SIMPLE_ATTRIB 1 @9 ENTITY_ID 0 3 6 1497100419 1 #
simple-snl-attrib $-1 -1 $276 $148 $90 1 1 1 1 1 1 1 1 1 1 1 1 0 1 0 1 1 1 @17 NEW_SIMPLE_ATTRIB 1 @9 ENTITY_ID 0 3 11 -2147483648 -1 #
integer_attrib-name_attrib-gen-attrib $-1 -1 $277 $-1 $149 2 1 1 1 1 1 1 1 1 1 1 1 1 1 0 1 1 1 @8 CUBIT_ID 12 #
plane-surface $-1 -1 -1 $-1 15 0 0 -1 0 0 0 0 1 forward_v I I I I #
coedge $-1 -1 -1 $-1 $154 $152 $156 $226 reversed $91 $-1 #
edge $278 -1 -1 $-1 $169 -5 $230 5 $167 $279 forward @7 unknown T 5 5 -5 5 5 5 #
integer_attrib-name_attrib-gen-attrib $-1 -1 $280 $-1 $155 2 1 1 1 1 1 1 1 1 1 1 1 1 1 0 1 1 1 @8 CUBIT_ID 10 #
vertex $281 -1 -1 $-1 $226 $282 #
straight-curve $-1 -1 -1 $-1 5 -5 0 0 0 -1 I I #
edge $283 -1 -1 $-1 $224 -5 $230 5 $221 $284 forward @7 unknown T 5 -5 -5 5 5 -5 #
integer_attrib-name_attrib-gen-attrib $-1 -1 $285 $-1 $157 2 1 1 1 1 1 1 1 1 1 1 1 1 1 0 1 1 1 @8 CUBIT_ID 18 #
straight-curve $-1 -1 -1 $-1 10 -5 -5 -1 0 0 I I #
integer_attrib-name_attrib-gen-attrib $-1 -1 $286 $-1 $159 2 1 1 1 1 1 1 1 1 1 1 1 1 1 0 1 1 1 @8 CUBIT_ID 20 #
vertex $287 -1 -1 $-1 $159 $288 #
straight-curve $-1 -1 -1 $-1 10 5 -5 1 0 0 I I #
simple-snl-attrib $-1 -1 $-1 $160 $97 1 1 1 1 1 1 1 1 1 1 1 1 0 1 0 1 1 1 @17 NEW_SIMPLE_ATTRIB 1 @9 ENTITY_ID 0 3 17 -2147483648 -1 #
integer_attrib-name_attrib-gen-attrib $-1 -1 $289 $-1 $161 2 1 1 1 1 1 1 1 1 1 1 1 1 1 0 1 1 1 @8 CUBIT_ID 13 #
point $-1 -1 -1 $-1 15 5 -5 #
integer_attrib-name_attrib-gen-attrib $-1 -1 $290 $-1 $162 2 1 1 1 1 1 1 1 1 1 1 1 1 1 0 1 1 1 @8 CUBIT_ID 14 #
point $-1 -1 -1 $-1 15 -5 -5 #
integer_attrib-name_attrib-gen-attrib $-1 -1 $291 $-1 $165 2 1 1 1 1 1 1 1 1 1 1 1 1 1 0 1 1 1 @8 CUBIT_ID 1 #
straight-curve $-1 -1 -1 $-1 5 0 5 0 -1 0 I I #
simple-snl-attrib $-1 -1 $-1 $168 $100 1 1 1 1 1 1 1 1 1 1 1 1 0 1 0 1 1 1 @17 NEW_SIMPLE_ATTRIB 1 @9 ENTITY_ID 0 3 14 -2147483648 -1 #
integer_attrib-name_attrib-gen-attrib $-1 -1 $292 $-1 $169 2 1 1 1 1 1 1 1 1 1 1 1 1 1 0 1 1 1 @8 CUBIT_ID 2 #
point $-1 -1 -1 $-1 5 5 5 #
simple-snl-attrib $-1 -1 $-1 $172 $102 1 1 1 1 1 1 1 1 1 1 1 1 0 1 0 1 1 1 @17 NEW_SIMPLE_ATTRIB 1 @9 ENTITY_ID 0 3 16 -2147483648 -1 #
integer_attrib-name_attrib-gen-attrib $-1 -1 $293 $-1 $173 2 1 1 1 1 1 1 1 1 1 1 1 1 1 0 1 1 1 @8 CUBIT_ID 1 #
point $-1 -1 -1 $-1 5 -5 5 #
integer_attrib-name_attrib-gen-attrib $-1 -1 $294 $-1 $175 2 1 1 1 1 1 1 1 1 1 1 1 1 1 0 1 1 1 @8 CUBIT_ID 22 #
straight-curve $-1 -1 -1 $-1 15 -5 0 0 0 -1 I I #
integer_attrib-name_attrib-gen-attrib $-1 -1 $295 $-1 $176 2 1 1 1 1 1 1 1 1 1 1 1 1 1 0 1 1 1 @8 CUBIT_ID 24 #
straight-curve $-1 -1 -1 $-1 15 5 0 0 0 -1 I I #
simple-snl-attrib $-1 -1 $-1 $178 $107 1 1 1 1 1 1 1 1 1 1 1 1 0 1 0 1 1 1 @17 NEW_SIMPLE_ATTRIB 1 @9 ENTITY_ID 0 3 9 -2147483648 -1 #
simple-snl-attrib $-1 -1 $-1 $180 $108 1 1 1 1 1 1 1 1 1 1 1 1 0 1 0 1 1 1 @17 NEW_SIMPLE_ATTRIB 1 @9 ENTITY_ID 0 3 10 -2147483648 -1 #
simple-snl-attrib $-1 -1 $-1 $183 $67 1 1 1 1 1 1 1 1 1 1 1 1 0 1 0 1 1 1 @17 NEW_SIMPLE_ATTRIB 3 @13 MESH_INTERVAL @4 LIMP @4 LIMP 2 1 0 5 1 0 0 1 1 #
simple-snl-attrib $-1 -1 $296 $184 $113 1 1 1 1 1 1 1 1 1 1 1 1 0 1 0 1 1 1 @17 NEW_SIMPLE_ATTRIB 1 @9 UNIQUE_ID 1 0 1 1927891207 #
integer_attrib-name_attrib-gen-attrib $-1 -1 $297 $-1 $187 2 1 1 1 1 1 1 1 1 1 1 1 1 1 0 1 1 1 @8 CUBIT_ID 11 #
straight-curve $-1 -1 -1 $-1 -5 5 0 0 0 -1 I I #
simple-snl-attrib $-1 -1 $-1 $188 $119 1 1 1 1 1 1 1 1 1 1 1 1 0 1 0 1 1 1 @17 NEW_SIMPLE_ATTRIB 1 @9 ENTITY_ID 0 3 9 -2147483648 -1 #
integer_attrib-name_attrib-gen-attrib $-1 -1 $298 $-1 $189 2 1 1 1 1 1 1 1 1 1 1 1 1 1 0 1 1 1 @8 CUBIT_ID 7 #
point $-1 -1 -1 $-1 -5 -5 -5 #
integer_attrib-name_attrib-gen-attrib $-1 -1 $299 $-1 $191 2 1 1 1 1 1 1 1 1 1 1 1 1 1 0 1 1 1 @8 CUBIT_ID 7 #
straight-curve $-1 -1 -1 $-1 -5 0 -5 0 1 0 I I #
simple-snl-attrib $-1 -1 $-1 $192 $121 1 1 1 1 1 1 1 1 1 1 1 1 0 1 0 1 1 1 @17 NEW_SIMPLE_ATTRIB 1 @9 ENTITY_ID 0 3 6 -2147483648 -1 #
simple-snl-attrib $-1 -1 $-1 $194 $123 1 1 1 1 1 1 1 1 1 1 1 1 0 1 0 1 1 1 @17 NEW_SIMPLE_ATTRIB 1 @9 ENTITY_ID 0 3 8 -2147483648 -1 #
integer_attrib-name_attrib-gen-attrib $-1 -1 $300 $-1 $195 2 1 1 1 1 1 1 1 1 1 1 1 1 1 0 1 1 1 @8 CUBIT_ID 8 #
point $-1 -1 -1 $-1 -5 5 -5 #
simple-snl-attrib $-1 -1 $301 $197 $74 1 1 1 1 1 1 1 1 1 1 1 1 0 1 0 1 1 1 @17 NEW_SIMPLE_ATTRIB 1 @9 ENTITY_ID 0 3 5 633555316 0 #
simple-snl-attrib $-1 -1 $302 $198 $125 1 1 1 1 1 1 1 1 1 1 1 1 0 1 0 1 1 1 @17 NEW_SIMPLE_ATTRIB 1 @9 UNIQUE_ID 1 0 1 633555316 #
simple-snl-attrib $-1 -1 $303 $200 $126 1 1 1 1 1 1 1 1 1 1 1 1 0 1 0 1 1 1 @17 NEW_SIMPLE_ATTRIB 1 @9 UNIQUE_ID 1 0 1 1318801544 #
simple-snl-attrib $-1 -1 $-1 $202 $129 1 1 1 1 1 1 1 1 1 1 1 1 0 1 0 1 1 1 @17 NEW_SIMPLE_ATTRIB 1 @9 ENTITY_ID 0 3 3 -2147483648 -1 #
simple-snl-attrib $-1 -1 $-1 $205 $133 1 1 1 1 1 1 1 1 1 1 1 1 0 1 0 1 1 1 @17 NEW_SIMPLE_ATTRIB 1 @9 ENTITY_ID 0 3 3 -2147483648 -1 #
simple-snl-attrib $-1 -1 $-1 $208 $137 1 1 1 1 1 1 1 1 1 1 1 1 0 1 0 1 1 1 @17 NEW_SIMPLE_ATTRIB 1 @9 ENTITY_ID 0 3 4 -2147483648 -1 #
simple-snl-attrib $-1 -1 $304 $210 $139 1 1 1 1 1 1 1 1 1 1 1 1 0 1 0 1 1 1 @17 NEW_SIMPLE_ATTRIB 1 @9 UNIQUE_ID 1 0 1 1157808192 #
simple-snl-attrib $-1 -1 $305 $212 $140 1 1 1 1 1 1 1 1 1 1 1 1 0 1 0 1 1 1 @17 NEW_SIMPLE_ATTRIB 1 @9 UNIQUE_ID 1 0 1 124920811 #
simple-snl-attrib $-1 -1 $-1 $214 $52 1 1 1 1 1 1 1 1 1 1 1 1 0 1 0 1 1 1 @17 NEW_SIMPLE_ATTRIB 1 @13 MERGE_PARTNER 0 4 1497100419 1 1 1 #
simple-snl-attrib $-1 -1 $306 $215 $84 1 1 1 1 1 1 1 1 1 1 1 1 0 1 0 1 1 1 @17 NEW_SIMPLE_ATTRIB 1 @9 ENTITY_ID 0 3 1 -2147483648 -1 #
simple-snl-attrib $-1 -1 $307 $216 $85 1 1 1 1 1 1 1 1 1 1 1 1 0 1 0 1 1 1 @17 NEW_SIMPLE_ATTRIB 1 @9 ENTITY_ID 0 3 2 -2147483648 -1 #
simple-snl-attrib $-1 -1 $308 $217 $56 1 1 1 1 1 1 1 1 1 1 1 1 0 1 0 1 1 1 @17 NEW_SIMPLE_ATTRIB 1 @13 MERGE_PARTNER 0 4 1927891207 -1 10 0 #
simple-snl-attrib $-1 -1 $-1 $218 $90 1 1 1 1 1 1 1 1 1 1 1 1 0 1 0 1 1 1 @17 NEW_SIMPLE_ATTRIB 3 @13 MESH_INTERVAL @4 LIMP @4 LIMP 2 1 0 5 1 0 0 1 1 #
simple-snl-attrib $-1 -1 $309 $219 $149 1 1 1 1 1 1 1 1 1 1 1 1 0 1 0 1 1 1 @17 NEW_SIMPLE_ATTRIB 1 @9 ENTITY_ID 0 3 12 -2147483648 -1 #
integer_attrib-name_attrib-gen-attrib $-1 -1 $310 $-1 $222 2 1 1 1 1 1 1 1 1 1 1 1 1 1 0 1 1 1 @8 CUBIT_ID 12 #
straight-curve $-1 -1 -1 $-1 5 5 0 0 0 -1 I I #
simple-snl-attrib $-1 -1 $311 $223 $155 1 1 1 1 1 1 1 1 1 1 1 1 0 1 0 1 1 1 @17 NEW_SIMPLE_ATTRIB 1 @9 UNIQUE_ID 1 0 1 1157808192 #
integer_attrib-name_attrib-gen-attrib $-1 -1 $312 $-1 $224 2 1 1 1 1 1 1 1 1 1 1 1 1 1 0 1 1 1 @8 CUBIT_ID 6 #
point $-1 -1 -1 $-1 5 -5 -5 #
integer_attrib-name_attrib-gen-attrib $-1 -1 $313 $-1 $226 2 1 1 1 1 1 1 1 1 1 1 1 1 1 0 1 1 1 @8 CUBIT_ID 5 #
straight-curve $-1 -1 -1 $-1 5 0 -5 0 1 0 I I #
simple-snl-attrib $-1 -1 $-1 $227 $157 1 1 1 1 1 1 1 1 1 1 1 1 0 1 0 1 1 1 @17 NEW_SIMPLE_ATTRIB 1 @9 ENTITY_ID 0 3 18 -2147483648 -1 #
simple-snl-attrib $-1 -1 $-1 $229 $159 1 1 1 1 1 1 1 1 1 1 1 1 0 1 0 1 1 1 @17 NEW_SIMPLE_ATTRIB 1 @9 ENTITY_ID 0 3 20 -2147483648 -1 #
integer_attrib-name_attrib-gen-attrib $-1 -1 $314 $-1 $230 2 1 1 1 1 1 1 1 1 1 1 1 1 1 0 1 1 1 @8 CUBIT_ID 5 #
point $-1 -1 -1 $-1 5 5 -5 #
simple-snl-attrib $-1 -1 $-1 $233 $161 1 1 1 1 1 1 1 1 1 1 1 1 0 1 0 1 1 1 @17 NEW_SIMPLE_ATTRIB 1 @9 ENTITY_ID 0 3 13 -2147483648 -1 #
simple-snl-attrib $-1 -1 $-1 $235 $162 1 1 1 1 1 1 1 1 1 1 1 1 0 1 0 1 1 1 @17 NEW_SIMPLE_ATTRIB 1 @9 ENTITY_ID 0 3 14 -2147483648 -1 #
simple-snl-attrib $-1 -1 $315 $237 $165 1 1 1 1 1 1 1 1 1 1 1 1 0 1 0 1 1 1 @17 NEW_SIMPLE_ATTRIB 1 @9 UNIQUE_ID 1 0 1 1497100419 #
simple-snl-attrib $-1 -1 $316 $240 $169 1 1 1 1 1 1 1 1 1 1 1 1 0 1 0 1 1 1 @17 NEW_SIMPLE_ATTRIB 1 @9 UNIQUE_ID 1 0 1 1204796404 #
simple-snl-attrib $-1 -1 $317 $243 $173 1 1 1 1 1 1 1 1 1 1 1 1 0 1 0 1 1 1 @17 NEW_SIMPLE_ATTRIB 1 @9 UNIQUE_ID 1 0 1 717244766 #
simple-snl-attrib $-1 -1 $-1 $245 $175 1 1 1 1 1 1 1 1 1 1 1 1 0 1 0 1 1 1 @17 NEW_SIMPLE_ATTRIB 1 @9 ENTITY_ID 0 3 22 -2147483648 -1 #
simple-snl-attrib $-1 -1 $-1 $247 $176 1 1 1 1 1 1 1 1 1 1 1 1 0 1 0 1 1 1 @17 NEW_SIMPLE_ATTRIB 1 @9 ENTITY_ID 0 3 24 -2147483648 -1 #
simple-snl-attrib $-1 -1 $318 $252 $113 1 1 1 1 1 1 1 1 1 1 1 1 0 1 0 1 1 1 @17 NEW_SIMPLE_ATTRIB 1 @9 ENTITY_ID 0 3 6 1497100419 1 #
simple-snl-attrib $-1 -1 $-1 $253 $187 1 1 1 1 1 1 1 1 1 1 1 1 0 1 0 1 1 1 @17 NEW_SIMPLE_ATTRIB 1 @9 ENTITY_ID 0 3 11 -2147483648 -1 #
simple-snl-attrib $-1 -1 $-1 $256 $189 1 1 1 1 1 1 1 1 1 1 1 1 0 1 0 1 1 1 @17 NEW_SIMPLE_ATTRIB 1 @9 ENTITY_ID 0 3 7 -2147483648 -1 #
simple-snl-attrib $-1 -1 $-1 $258 $191 1 1 1 1 1 1 1 1 1 1 1 1 0 1 0 1 1 1 @17 NEW_SIMPLE_ATTRIB 1 @9 ENTITY_ID 0 3 7 -2147483648 -1 #
simple-snl-attrib $-1 -1 $-1 $262 $195 1 1 1 1 1 1 1 1 1 1 1 1 0 1 0 1 1 1 @17 NEW_SIMPLE_ATTRIB 1 @9 ENTITY_ID 0 3 8 -2147483648 -1 #
simple-snl-attrib $-1 -1 $-1 $264 $74 1 1 1 1 1 1 1 1 1 1 1 1 0 1 0 1 1 1 @17 NEW_SIMPLE_ATTRIB 1 @13 MERGE_PARTNER 0 4 212987153 1 5 1 #
simple-snl-attrib $-1 -1 $319 $265 $125 1 1 1 1 1 1 1 1 1 1 1 1 0 1 0 1 1 1 @17 NEW_SIMPLE_ATTRIB 1 @9 ENTITY_ID 0 3 5 -2147483648 -1 #
simple-snl-attrib $-1 -1 $320 $266 $126 1 1 1 1 1 1 1 1 1 1 1 1 0 1 0 1 1 1 @17 NEW_SIMPLE_ATTRIB 1 @9 ENTITY_ID 0 3 6 -2147483648 -1 #
simple-snl-attrib $-1 -1 $321 $270 $139 1 1 1 1 1 1 1 1 1 1 1 1 0 1 0 1 1 1 @17 NEW_SIMPLE_ATTRIB 1 @9 ENTITY_ID 0 3 10 717244766 0 #
simple-snl-attrib $-1 -1 $322 $271 $140 1 1 1 1 1 1 1 1 1 1 1 1 0 1 0 1 1 1 @17 NEW_SIMPLE_ATTRIB 1 @9 ENTITY_ID 0 3 12 1204796404 0 #
simple-snl-attrib $-1 -1 $-1 $273 $84 1 1 1 1 1 1 1 1 1 1 1 1 0 1 0 1 1 1 @17 NEW_SIMPLE_ATTRIB 1 @13 MERGE_PARTNER 0 4 717244766 1 1 1 #
simple-snl-attrib $-1 -1 $-1 $274 $85 1 1 1 1 1 1 1 1 1 1 1 1 0 1 0 1 1 1 @17 NEW_SIMPLE_ATTRIB 1 @13 MERGE_PARTNER 0 4 1204796404 1 2 1 #
simple-snl-attrib $-1 -1 $-1 $275 $56 1 1 1 1 1 1 1 1 1 1 1 1 0 1 0 1 1 1 @17 NEW_SIMPLE_ATTRIB 3 @13 MESH_INTERVAL @4 LIMP @4 LIMP 2 1 0 5 1 0 0 1 1 #
simple-snl-attrib $-1 -1 $-1 $277 $149 1 1 1 1 1 1 1 1 1 1 1 1 0 1 0 1 1 1 @17 NEW_SIMPLE_ATTRIB 3 @13 MESH_INTERVAL @4 LIMP @4 LIMP 2 1 0 5 1 0 0 1 1 #
simple-snl-attrib $-1 -1 $323 $278 $222 1 1 1 1 1 1 1 1 1 1 1 1 0 1 0 1 1 1 @17 NEW_SIMPLE_ATTRIB 1 @9 UNIQUE_ID 1 0 1 124920811 #
simple-snl-attrib $-1 -1 $324 $280 $155 1 1 1 1 1 1 1 1 1 1 1 1 0 1 0 1 1 1 @17 NEW_SIMPLE_ATTRIB 1 @9 ENTITY_ID 0 3 10 717244766 0 #
simple-snl-attrib $-1 -1 $325 $281 $224 1 1 1 1 1 1 1 1 1 1 1 1 0 1 0 1 1 1 @17 NEW_SIMPLE_ATTRIB 1 @9 UNIQUE_ID 1 0 1 1318801544 #
simple-snl-attrib $-1 -1 $326 $283 $226 1 1 1 1 1 1 1 1 1 1 1 1 0 1 0 1 1 1 @17 NEW_SIMPLE_ATTRIB 1 @9 UNIQUE_ID 1 0 1 212987153 #
simple-snl-attrib $-1 -1 $327 $287 $230 1 1 1 1 1 1 1 1 1 1 1 1 0 1 0 1 1 1 @17 NEW_SIMPLE_ATTRIB 1 @9 UNIQUE_ID 1 0 1 633555316 #
simple-snl-attrib $-1 -1 $328 $291 $165 1 1 1 1 1 1 1 1 1 1 1 1 0 1 0 1 1 1 @17 NEW_SIMPLE_ATTRIB 1 @9 ENTITY_ID 0 3 1 717244766 0 #
simple-snl-attrib $-1 -1 $329 $292 $169 1 1 1 1 1 1 1 1 1 1 1 1 0 1 0 1 1 1 @17 NEW_SIMPLE_ATTRIB 1 @9 ENTITY_ID 0 3 2 -2147483648 -1 #
simple-snl-attrib $-1 -1 $330 $293 $173 1 1 1 1 1 1 1 1 1 1 1 1 0 1 0 1 1 1 @17 NEW_SIMPLE_ATTRIB 1 @9 ENTITY_ID 0 3 1 -2147483648 -1 #
simple-snl-attrib $-1 -1 $331 $296 $113 1 1 1 1 1 1 1 1 1 1 1 1 0 1 0 1 1 1 @17 NEW_SIMPLE_ATTRIB 1 @13 MERGE_PARTNER 0 4 1927891207 1 6 1 #
simple-snl-attrib $-1 -1 $-1 $302 $125 1 1 1 1 1 1 1 1 1 1 1 1 0 1 0 1 1 1 @17 NEW_SIMPLE_ATTRIB 1 @13 MERGE_PARTNER 0 4 633555316 1 5 1 #
simple-snl-attrib $-1 -1 $-1 $303 $126 1 1 1 1 1 1 1 1 1 1 1 1 0 1 0 1 1 1 @17 NEW_SIMPLE_ATTRIB 1 @13 MERGE_PARTNER 0 4 1318801544 1 6 1 #
simple-snl-attrib $-1 -1 $-1 $304 $139 1 1 1 1 1 1 1 1 1 1 1 1 0 1 0 1 1 1 @17 NEW_SIMPLE_ATTRIB 1 @13 MERGE_PARTNER 0 4 1157808192 1 10 1 #
simple-snl-attrib $-1 -1 $-1 $305 $140 1 1 1 1 1 1 1 1 1 1 1 1 0 1 0 1 1 1 @17 NEW_SIMPLE_ATTRIB 1 @13 MERGE_PARTNER 0 4 124920811 1 12 1 #
simple-snl-attrib $-1 -1 $332 $310 $222 1 1 1 1 1 1 1 1 1 1 1 1 0 1 0 1 1 1 @17 NEW_SIMPLE_ATTRIB 1 @9 ENTITY_ID 0 3 12 1204796404 0 #
simple-snl-attrib $-1 -1 $-1 $311 $155 1 1 1 1 1 1 1 1 1 1 1 1 0 1 0 1 1 1 @17 NEW_SIMPLE_ATTRIB 1 @13 MERGE_PARTNER 0 4 1157808192 1 21 0 #
simple-snl-attrib $-1 -1 $333 $312 $224 1 1 1 1 1 1 1 1 1 1 1 1 0 1 0 1 1 1 @17 NEW_SIMPLE_ATTRIB 1 @9 ENTITY_ID 0 3 6 -2147483648 -1 #
simple-snl-attrib $-1 -1 $334 $313 $226 1 1 1 1 1 1 1 1 1 1 1 1 0 1 0 1 1 1 @17 NEW_SIMPLE_ATTRIB 1 @9 ENTITY_ID 0 3 5 633555316 0 #
simple-snl-attrib $-1 -1 $335 $314 $230 1 1 1 1 1 1 1 1 1 1 1 1 0 1 0 1 1 1 @17 NEW_SIMPLE_ATTRIB 1 @9 ENTITY_ID 0 3 5 -2147483648 -1 #
simple-snl-attrib $-1 -1 $-1 $315 $165 1 1 1 1 1 1 1 1 1 1 1 1 0 1 0 1 1 1 @17 NEW_SIMPLE_ATTRIB 1 @13 MERGE_PARTNER 0 4 1497100419 -1 15 0 #
simple-snl-attrib $-1 -1 $-1 $316 $169 1 1 1 1 1 1 1 1 1 1 1 1 0 1 0 1 1 1 @17 NEW_SIMPLE_ATTRIB 1 @13 MERGE_PARTNER 0 4 1204796404 1 11 0 #
simple-snl-attrib $-1 -1 $-1 $317 $173 1 1 1 1 1 1 1 1 1 1 1 1 0 1 0 1 1 1 @17 NEW_SIMPLE_ATTRIB 1 @13 MERGE_PARTNER 0 4 717244766 1 12 0 #
simple-snl-attrib $-1 -1 $-1 $318 $113 1 1 1 1 1 1 1 1 1 1 1 1 0 1 0 1 1 1 @17 NEW_SIMPLE_ATTRIB 3 @13 MESH_INTERVAL @4 LIMP @4 LIMP 2 1 0 5 1 0 0 1 1 #
simple-snl-attrib $-1 -1 $-1 $323 $222 1 1 1 1 1 1 1 1 1 1 1 1 0 1 0 1 1 1 @17 NEW_SIMPLE_ATTRIB 1 @13 MERGE_PARTNER 0 4 124920811 1 23 0 #
simple-snl-attrib $-1 -1 $-1 $325 $224 1 1 1 1 1 1 1 1 1 1 1 1 0 1 0 1 1 1 @17 NEW_SIMPLE_ATTRIB 1 @13 MERGE_PARTNER 0 4 1318801544 1 15 0 #
simple-snl-attrib $-1 -1 $-1 $326 $226 1 1 1 1 1 1 1 1 1 1 1 1 0 1 0 1 1 1 @17 NEW_SIMPLE_ATTRIB 1 @13 MERGE_PARTNER 0 4 212987153 -1 19 0 #
simple-snl-attrib $-1 -1 $-1 $327 $230 1 1 1 1 1 1 1 1 1 1 1 1 0 1 0 1 1 1 @17 NEW_SIMPLE_ATTRIB 1 @13 MERGE_PARTNER 0 4 633555316 1 16 0 #
End-of-ACIS-data 